<svg width="39" height="34" viewBox="0 0 39 34" fill="none" xmlns="http://www.w3.org/2000/svg">
<rect width="39" height="34" fill="#E5E5E5"/>
<g id="Book Appt Page" clip-path="url(#clip0_2_2)">
<rect width="1612" height="2796" transform="translate(-509 -2633)" fill="white"/>
<g id="Group 12356">
<path id="Banner Rectangle" d="M-509 -317.877H1103V172.733H-509V-317.877Z" fill="#F3DED7"/>
<path id="Banner Rectangle_2" d="M-509 -327H1103V163.61H-509V-327Z" fill="#F3DED7"/>
<g id="Group 12324">
<g id="Instagram">
<g id="Instagram_2">
<path id="Union" fill-rule="evenodd" clip-rule="evenodd" d="M35.1595 2.82389C36.1261 3.67032 36.8803 4.68423 37.3738 5.8007C37.9429 7.12528 38.2465 8.52601 38.2713 9.94113C38.3907 11.7284 38.3907 12.3074 38.3907 16.8699C38.3907 21.4324 38.363 22.002 38.2713 23.7986C38.2393 25.1955 37.9387 26.5738 37.3781 27.8811C36.8839 28.9975 36.1295 30.0113 35.163 30.858C34.1965 31.7046 33.0392 32.3655 31.7649 32.7984C30.273 33.288 28.6973 33.5526 27.1046 33.581C25.0687 33.6837 24.4014 33.6837 19.1954 33.6837C13.9893 33.6837 13.3391 33.6594 11.2861 33.581C9.69014 33.535 8.11482 33.2508 6.62798 32.7405C5.35326 32.3083 4.19547 31.648 3.22858 30.8016C2.26169 29.9552 1.50697 28.9414 1.01264 27.8251C0.451956 26.5159 0.151363 25.1376 0.119385 23.7407C0 21.9534 0 21.3726 0 16.812C0 12.2495 0.0277143 11.6798 0.119385 9.88323C0.150541 8.48785 0.452606 7.10729 1.01264 5.8007C1.50559 4.68394 2.25958 3.66977 3.22623 2.82327C4.19288 1.97678 5.35086 1.31665 6.62585 0.885233C8.11551 0.393315 9.69018 0.128035 11.2819 0.100849C13.3178 0 13.9851 0 19.1911 0C24.3971 0 25.0473 0.0224108 27.1003 0.100849C28.6932 0.1295 30.269 0.394726 31.7606 0.885233C33.0353 1.31715 34.1929 1.97746 35.1595 2.82389ZM34.1142 26.755C34.5392 25.745 34.7634 24.6788 34.7772 23.6025V23.6043H34.8006C34.8923 21.8189 34.8923 21.3296 34.8923 16.7802C34.8923 12.2289 34.8689 11.7303 34.7772 9.9542C34.7573 8.88998 34.5332 7.83627 34.1142 6.83721C33.7938 6.11086 33.3036 5.4512 32.6751 4.90059C32.0466 4.34997 31.2936 3.92056 30.4644 3.63991C29.3246 3.2684 28.1202 3.07191 26.9042 3.0591C24.8427 2.95638 24.3097 2.95638 19.1143 2.95638C13.919 2.95638 13.3498 2.97879 11.3224 3.0591C10.1072 3.07397 8.90394 3.27039 7.76427 3.63991C6.08222 4.20392 4.74981 5.36369 4.09959 6.83721C3.67461 7.84649 3.45035 8.91214 3.43657 9.98782C3.32358 11.7975 3.32358 12.2625 3.32358 16.8138C3.32358 21.3633 3.3449 21.8638 3.43657 23.638C3.45642 24.7022 3.68056 25.7559 4.09959 26.755C4.42115 27.4826 4.91349 28.143 5.54476 28.6934C6.17603 29.2439 6.93217 29.6721 7.76427 29.9504C8.90338 30.3217 10.107 30.5182 11.3224 30.5312C13.386 30.6339 13.9168 30.6339 19.1143 30.6339C24.3076 30.6339 24.8789 30.6134 26.9042 30.5312C28.1201 30.5175 29.3243 30.321 30.4644 29.9504C31.2936 29.6703 32.0467 29.2414 32.6753 28.691C33.3039 28.1407 33.794 27.4812 34.1142 26.755ZM29.428 9.86085C30.6973 9.86085 31.7262 8.95948 31.7262 7.84759C31.7262 6.73569 30.6973 5.83432 29.428 5.83432C28.1588 5.83432 27.1299 6.73569 27.1299 7.84759C27.1299 8.95948 28.1588 9.86085 29.428 9.86085ZM19.181 8.16527C16.5666 8.16527 14.0592 9.0751 12.2105 10.6946C10.3618 12.3141 9.32324 14.5106 9.32324 16.8009C9.32324 19.0913 10.3618 21.2878 12.2105 22.9073C14.0592 24.5268 16.5666 25.4366 19.181 25.4366C21.7954 25.4366 24.3028 24.5268 26.1515 22.9073C28.0002 21.2878 29.0387 19.0913 29.0387 16.8009C29.0387 14.5106 28.0002 12.3141 26.1515 10.6946C24.3028 9.0751 21.7954 8.16527 19.181 8.16527ZM19.181 22.4093C17.4825 22.4093 15.8536 21.8182 14.6526 20.7661C13.4516 19.714 12.7769 18.287 12.7769 16.7991C12.7769 15.3112 13.4516 13.8842 14.6526 12.8321C15.8536 11.7799 17.4825 11.1889 19.181 11.1889C20.8795 11.1889 22.5084 11.7799 23.7094 12.8321C24.9104 13.8842 25.5851 15.3112 25.5851 16.7991C25.5851 18.287 24.9104 19.714 23.7094 20.7661C22.5084 21.8182 20.8795 22.4093 19.181 22.4093Z" fill="url(#paint0_linear_2_2)"/>
</g>
</g>
</g>
</g>
</g>
<defs>
<linearGradient id="paint0_linear_2_2" x1="32.1238" y1="1.56341" x2="7.40277" y2="34.1261" gradientUnits="userSpaceOnUse">
<stop offset="0.17301" stop-color="#E89C93"/>
<stop offset="0.688933" stop-color="#B78E80"/>
<stop offset="1" stop-color="#FFAF00"/>
</linearGradient>
<clipPath id="clip0_2_2">
<rect width="1612" height="2796" fill="white" transform="translate(-509 -2633)"/>
</clipPath>
</defs>
</svg>
